<svg xmlns="http://www.w3.org/2000/svg" width="41" height="41.083" viewBox="0 0 41 41.083">
  <g id="Group_13" data-name="Group 13" transform="matrix(1, -0.017, 0.017, 1, -155.939, -661.942)">
    <g id="Group_335" data-name="Group 335" transform="matrix(0.017, -1, 1, 0.017, -523.767, 838.011)">

      <path id="Path_132" data-name="Path 132" d="M20.5,0A20.5,20.5,0,1,1,5.089,34.019,20.236,20.236,0,0,1,0,20.5,20.5,20.5,0,0,1,20.5,0Z" transform="translate(144 665)" fill="#001a31" opacity="0"/>
      <path id="Union_1" data-name="Union 1" d="M5.657,20.5h0L1.414,16.258l.707-.707,3.742,3.742V8h1V19.292l3.742-3.742.707.707L7.071,20.5h0l-.707.707Z" transform="translate(158.136 671)" fill="#001a31"/>
    </g>
    <path id="Union_2" data-name="Union 2" d="M5.657,20.5h0L1.414,16.258l.707-.707,3.742,3.742V8h1V19.292l3.742-3.742.707.707L7.071,20.5h0l-.707.707Z" transform="translate(158.136 657)" fill="#f1f1ef" opacity="0"/>
  </g>
</svg>
