<svg xmlns="http://www.w3.org/2000/svg" width="14.814" height="10" viewBox="0 0 14.814 10">
  <path id="Icon_zocial-email" data-name="Icon zocial-email" d="M.072,13.182V4.954q0-.014.043-.271L4.958,8.825.129,13.468a1.211,1.211,0,0,1-.057-.286ZM.715,4.111a.616.616,0,0,1,.243-.043H14a.809.809,0,0,1,.257.043L9.4,8.268l-.643.514L7.486,9.825,6.215,8.782l-.643-.514Zm.014,9.914L5.6,9.354l1.886,1.529L9.372,9.354l4.871,4.671a.686.686,0,0,1-.243.043H.958a.647.647,0,0,1-.229-.043Zm9.286-5.2,4.829-4.143a.853.853,0,0,1,.043.271v8.229a1.1,1.1,0,0,1-.043.286Z" transform="translate(-0.072 -4.068)" fill="#e1001e"/>
</svg>
