<?xml version="1.0" standalone="no"?>
<!DOCTYPE svg PUBLIC "-//W3C//DTD SVG 20010904//EN"
 "http://www.w3.org/TR/2001/REC-SVG-20010904/DTD/svg10.dtd">
<svg version="1.0" xmlns="http://www.w3.org/2000/svg"
 width="300.000000pt" height="132.000000pt" viewBox="0 0 300.000000 132.000000"
 preserveAspectRatio="xMidYMid meet">
<metadata>
Created by potrace 1.10, written by Peter Selinger 2001-2011
</metadata>
<g transform="translate(0.000000,132.000000) scale(0.100000,-0.100000)"
fill="#000000" stroke="none">
<path d="M565 1278 c-81 -15 -171 -64 -243 -133 -77 -73 -123 -144 -158 -244
-133 -383 91 -811 453 -863 69 -10 93 -9 158 5 207 45 369 214 426 447 19 76
16 249 -5 335 -28 116 -81 210 -166 296 -135 137 -292 190 -465 157z m133 -24
c21 -6 21 -7 5 -21 -10 -8 -13 -12 -8 -10 19 9 130 -14 180 -37 56 -26 122
-86 158 -143 57 -92 81 -226 56 -317 -23 -83 -110 -129 -124 -66 -11 49 -81
147 -132 184 -26 19 -69 41 -95 47 -27 7 -48 17 -48 21 0 26 95 33 169 12 24
-7 24 -7 19 57 -6 72 -31 130 -75 171 -31 30 -111 67 -130 61 -7 -3 -20 1 -30
7 -16 10 -16 10 3 5 13 -3 26 1 34 10 7 9 8 15 2 15 -6 0 -12 -5 -14 -11 -2
-5 -11 -7 -21 -4 -9 4 -14 11 -11 16 6 10 29 11 62 3z m-60 -59 c91 -27 151
-102 140 -175 -3 -22 -10 -26 -54 -31 -101 -13 -193 -82 -239 -181 -23 -50
-24 -50 -31 -24 -9 37 0 83 26 139 12 25 19 50 16 55 -12 20 -95 33 -137 22
-43 -12 -124 -79 -134 -111 -9 -27 -28 -24 -20 4 16 55 76 168 108 204 58 64
155 108 248 112 14 1 49 -6 77 -14z m207 -192 c6 -41 6 -43 -19 -43 -25 0 -26
3 -24 43 5 72 31 72 43 0z m-391 -48 c7 -20 -7 -31 -39 -29 -48 3 -74 14 -68
30 7 18 100 17 107 -1z m220 -11 c13 -5 14 -10 5 -20 -14 -17 0 -31 56 -59 51
-26 51 -26 107 -75 42 -37 46 -44 33 -57 -8 -8 -15 -17 -15 -21 -6 -135 -10
-174 -21 -207 -13 -38 -16 -40 -56 -39 -31 0 -40 -3 -36 -14 4 -9 0 -13 -13
-11 -10 1 -32 -4 -49 -11 -36 -17 -143 -19 -153 -4 -4 6 -16 14 -27 18 -19 8
-19 8 3 19 31 14 27 27 -9 27 -23 0 -43 12 -84 51 l-53 50 -20 -43 c-42 -96
-35 -182 23 -268 25 -38 29 -49 17 -47 -10 1 -18 -2 -19 -8 -2 -5 7 -10 20
-10 15 0 22 -6 20 -18 0 -12 4 -16 13 -13 20 8 26 -10 9 -24 -10 -8 -15 -9
-15 -2 0 6 -7 9 -15 6 -18 -7 -19 0 -4 29 12 21 11 22 -8 4 -20 -17 -21 -17
-26 4 -4 14 -10 18 -19 14 -7 -4 -6 0 3 9 15 16 12 21 -36 69 -99 100 -147
249 -125 391 12 80 60 177 101 207 27 19 94 26 114 11 6 -4 10 -52 10 -107 0
-93 2 -105 32 -165 31 -62 107 -159 117 -149 7 6 -64 119 -74 119 -5 0 -7 7
-3 15 3 9 -1 23 -9 33 -16 18 -31 63 -34 99 -1 19 1 21 14 11 12 -10 20 -6 43
22 17 19 49 55 72 80 23 25 41 48 40 51 -1 4 9 10 22 13 14 4 25 11 25 16 0
12 3 12 24 4z m480 -104 c-9 -21 -9 -26 11 -115 20 -97 14 -168 -23 -269 -65
-177 -272 -285 -356 -185 -14 17 -26 35 -26 41 0 6 14 27 32 46 70 80 113 232
89 317 -13 48 -8 55 23 26 26 -24 46 -88 46 -145 0 -41 -2 -40 41 -22 87 36
129 101 137 211 2 39 9 78 14 88 5 11 5 17 -2 17 -5 0 -10 10 -10 23 1 22 1
22 16 2 8 -11 12 -26 8 -35z m-747 -337 c3 4 12 -1 19 -11 17 -22 17 -34 1
-30 -16 4 -60 -40 -52 -52 3 -5 0 -7 -8 -4 -10 3 -15 22 -16 55 0 35 3 48 11
43 8 -5 9 -1 4 11 -7 18 -6 18 14 0 11 -10 23 -15 27 -12z m392 -83 c-11 -31
-66 -84 -105 -102 -32 -15 -30 -21 11 -67 43 -48 90 -71 143 -71 41 0 106 22
117 40 4 6 10 8 15 5 5 -3 11 -1 15 5 4 6 10 8 15 5 5 -3 13 3 19 12 5 10 12
15 16 11 8 -8 -26 -48 -41 -48 -7 0 -36 -18 -64 -41 -29 -23 -77 -52 -107 -66
-47 -22 -65 -24 -136 -21 -134 7 -231 69 -283 183 -29 63 -29 134 -1 162 13
14 21 12 71 -12 46 -22 70 -28 124 -27 66 0 151 27 166 51 4 6 13 11 21 11 11
0 12 -6 4 -30z"/>
<path d="M1320 1103 c0 -31 2 -33 35 -33 l35 0 0 -204 0 -205 31 1 30 1 -3
204 -3 203 33 0 c30 0 32 2 32 33 l0 32 -95 0 -95 0 0 -32z"/>
<path d="M1530 1026 c0 -61 3 -168 7 -237 l6 -126 30 -1 30 -1 -5 110 -4 109
43 0 43 0 0 -110 0 -110 30 0 30 0 -2 237 -3 237 -30 0 -30 0 3 -97 4 -97 -46
0 -46 0 0 98 0 97 -30 1 -30 1 0 -111z"/>
<path d="M1774 1010 c3 -69 6 -174 6 -235 l0 -110 85 0 85 0 0 33 0 32 -55 0
-55 0 -2 55 c-1 30 -2 63 -2 73 -1 14 7 17 47 15 l47 -1 0 35 0 36 -50 -7 -50
-7 0 71 0 70 55 0 55 0 0 33 0 32 -86 0 -87 0 7 -125z"/>
<path d="M2552 901 l3 -236 29 0 29 0 -2 103 c-1 56 0 102 2 102 2 0 21 -47
42 -104 38 -104 39 -104 72 -104 18 0 33 1 33 2 0 4 -46 119 -73 182 l-26 61
35 94 c19 52 39 102 44 111 12 21 4 25 -35 23 -28 -2 -31 -6 -61 -101 l-32
-99 -1 102 -1 102 -31 -1 -30 -1 3 -236z m64 29 c13 0 19 -18 15 -49 -2 -8 2
-10 10 -5 8 4 10 3 5 -5 -6 -9 -11 -9 -21 -1 -10 8 -17 5 -29 -12 -19 -26 -19
-24 -7 19 6 22 6 33 -2 36 -6 2 -8 11 -3 23 6 12 10 15 13 7 3 -7 11 -13 19
-13z"/>
<path d="M2077 1124 c-10 -10 -8 -426 2 -442 7 -12 68 -16 174 -13 15 1 17 14
17 126 l0 125 -48 0 c-57 0 -61 -2 -54 -35 3 -16 11 -25 23 -25 17 0 19 -8 19
-68 l0 -68 -40 4 -39 4 -3 169 -3 169 43 0 42 0 0 -40 c0 -38 2 -40 30 -40
l31 0 -3 68 -3 67 -90 3 c-50 1 -94 0 -98 -4z"/>
<path d="M2312 903 l3 -228 100 0 100 0 -4 220 c-1 121 -5 223 -8 228 -2 4
-47 7 -99 7 l-94 0 2 -227z m138 65 c0 -57 3 -133 7 -170 l6 -68 -47 0 -46 0
0 154 c0 85 -3 161 -6 170 -5 13 2 16 40 16 l46 0 0 -102z"/>
<path d="M1334 614 c3 -9 6 -81 6 -160 0 -137 1 -144 20 -144 18 0 20 7 20 73
l0 74 30 -5 c27 -4 30 -2 30 23 0 25 -3 27 -30 23 -30 -5 -30 -4 -30 44 l0 48
35 0 c28 0 35 4 35 20 0 18 -7 20 -61 20 -52 0 -60 -2 -55 -16z"/>
<path d="M1468 618 c-7 -21 4 -293 12 -298 4 -3 33 -3 64 -2 l57 4 -3 151 -3
152 -62 3 c-43 2 -62 -1 -65 -10z m94 -128 c1 -55 2 -108 2 -117 1 -12 -8 -19
-26 -21 l-28 -3 0 83 c0 46 -3 100 -6 121 -6 36 -6 37 25 37 l31 0 2 -100z"/>
<path d="M1630 475 c0 -117 3 -155 13 -156 65 -5 100 -3 111 5 9 8 11 50 8
159 -4 140 -5 147 -24 147 -21 0 -21 -3 -14 -140 l7 -140 -31 0 -30 0 0 140
c0 133 -1 140 -20 140 -19 0 -20 -7 -20 -155z"/>
<path d="M1790 470 c0 -156 0 -160 21 -160 21 0 21 4 17 95 -2 52 -1 92 2 89
3 -3 19 -45 35 -92 21 -60 35 -88 48 -90 16 -3 17 10 17 157 l0 161 -24 0
c-23 0 -23 0 -18 -92 4 -67 2 -89 -7 -84 -6 4 -11 14 -11 23 0 9 -10 47 -22
84 -17 50 -28 69 -40 69 -16 0 -18 -14 -18 -160z"/>
<path d="M1955 473 l6 -158 52 3 c34 2 56 9 65 19 8 11 12 55 12 133 0 146 -7
160 -86 160 l-54 0 5 -157z m93 0 c2 -104 1 -112 -18 -118 -11 -3 -24 -3 -30
0 -6 4 -10 55 -10 121 l0 115 28 -3 27 -3 3 -112z"/>
<path d="M2136 513 c-9 -65 -21 -135 -25 -156 -9 -39 -1 -53 24 -43 9 3 15 18
15 35 0 26 3 29 28 27 21 -3 28 -9 32 -32 3 -19 11 -29 23 -29 9 0 17 3 18 8
0 4 -12 75 -27 157 -26 138 -30 150 -50 150 -20 0 -23 -9 -38 -117z m57 -45
c5 -54 4 -58 -15 -58 -19 0 -20 4 -14 46 3 26 6 56 6 67 0 43 18 0 23 -55z"/>
<path d="M2250 610 c0 -15 7 -20 25 -20 l25 0 0 -140 c0 -133 1 -140 20 -140
19 0 20 7 20 140 0 133 1 140 20 140 13 0 20 7 20 20 0 18 -7 20 -65 20 -58 0
-65 -2 -65 -20z"/>
<path d="M2400 470 c0 -153 1 -160 20 -160 19 0 20 7 20 160 0 153 -1 160 -20
160 -19 0 -20 -7 -20 -160z"/>
<path d="M2467 623 c-9 -14 5 -303 14 -304 5 -1 18 -1 29 -1 11 0 36 0 55 1
l36 1 -3 153 -3 152 -62 3 c-34 2 -63 -1 -66 -5z m95 -138 c0 -58 1 -111 2
-117 1 -8 -11 -13 -27 -13 l-28 0 -5 118 -4 117 30 0 30 0 2 -105z"/>
<path d="M2628 470 c3 -155 4 -160 24 -160 20 0 21 3 15 96 -4 54 -3 94 1 90
4 -4 21 -47 37 -94 21 -60 35 -88 48 -90 15 -3 17 5 17 66 0 38 -3 110 -6 160
-6 78 -10 92 -24 92 -16 0 -17 -10 -13 -92 6 -110 -4 -108 -38 9 -20 68 -28
83 -44 83 -19 0 -20 -6 -17 -160z"/>
<path d="M1420 221 c0 -28 5 -53 10 -56 6 -3 10 4 10 17 l0 23 20 -25 c10 -14
22 -21 26 -17 4 4 0 15 -9 25 -10 10 -17 22 -17 27 0 5 7 17 17 27 9 10 13 21
9 26 -4 4 -16 -4 -27 -17 -19 -23 -19 -23 -19 -2 0 12 -4 21 -10 21 -5 0 -10
-22 -10 -49z"/>
<path d="M1500 221 c0 -28 5 -53 10 -56 6 -4 10 9 10 32 l1 38 20 -38 c25 -48
38 -40 37 23 0 56 -15 68 -20 18 l-3 -33 -18 33 c-25 45 -37 40 -37 -17z"/>
<path d="M1602 258 c-27 -27 -4 -98 32 -98 17 0 46 33 46 51 0 23 -30 59 -49
59 -9 0 -22 -5 -29 -12z m53 -28 c8 -25 -11 -51 -31 -43 -14 5 -19 44 -7 56
13 13 32 7 38 -13z"/>
<path d="M1686 243 c17 -68 21 -78 30 -76 5 2 13 18 18 35 l9 33 10 -38 c12
-50 28 -43 43 19 l11 49 4 -50 c3 -43 7 -50 27 -53 25 -4 30 13 7 22 -10 3
-15 19 -15 46 0 37 -2 41 -22 38 -18 -2 -24 -11 -29 -38 l-5 -35 -10 34 c-12
41 -34 53 -34 19 0 -12 -5 -30 -10 -38 -8 -12 -10 -11 -10 7 0 28 -10 53 -21
53 -5 0 -6 -12 -3 -27z"/>
<path d="M1872 218 c3 -46 6 -53 26 -56 12 -2 22 1 22 7 0 6 -7 11 -15 11 -8
0 -15 7 -15 15 0 8 7 15 15 15 8 0 15 5 15 10 0 6 -7 10 -15 10 -8 0 -15 5
-15 10 0 6 7 10 15 10 8 0 15 5 15 10 0 6 -11 10 -26 10 -24 0 -25 -2 -22 -52z"/>
<path d="M1933 255 c-6 -16 2 -84 11 -92 3 -3 16 -3 30 1 51 13 43 106 -9 106
-14 0 -28 -7 -32 -15z m55 -34 c4 -23 -15 -44 -30 -35 -4 3 -8 19 -8 35 0 24
4 30 18 27 9 -2 19 -14 20 -27z"/>
<path d="M2032 258 c-26 -26 -4 -98 29 -98 12 0 49 37 49 50 0 6 -12 9 -27 9
-17 -1 -21 -3 -10 -6 20 -5 22 -19 4 -26 -22 -8 -39 8 -35 34 2 19 8 24 31 22
29 -2 37 11 11 21 -24 9 -39 7 -52 -6z"/>
<path d="M2119 265 c0 -3 -1 -26 -1 -52 -1 -45 1 -48 26 -51 17 -2 26 1 26 11
0 8 -7 14 -16 13 -26 -2 -28 22 -2 27 l23 4 -22 8 c-28 9 -30 25 -3 25 11 0
20 5 20 10 0 10 -49 15 -51 5z"/>
<path d="M2217 218 c-17 -55 -14 -75 7 -45 16 21 32 22 40 1 3 -8 10 -13 15
-10 12 8 -19 106 -34 106 -6 0 -19 -23 -28 -52z"/>
<path d="M2296 253 c-5 -13 0 -24 19 -39 14 -11 22 -23 19 -27 -4 -4 -13 -2
-20 4 -7 6 -14 6 -18 1 -10 -17 24 -37 42 -25 27 17 26 42 -2 54 -34 16 -33
31 0 23 20 -5 25 -3 22 7 -7 22 -54 23 -62 2z"/>
<path d="M2407 218 c-17 -55 -14 -75 8 -45 15 21 25 21 42 -2 6 -9 14 -14 16
-11 9 8 -27 110 -39 110 -5 0 -18 -23 -27 -52z"/>
<path d="M2522 258 c-7 -7 -12 -27 -12 -45 0 -40 38 -65 65 -43 23 19 19 50
-7 50 -21 0 -21 -1 -4 -13 16 -12 16 -15 4 -19 -23 -9 -40 7 -36 33 2 19 8 24
31 22 24 -2 27 0 17 13 -15 17 -42 18 -58 2z"/>
<path d="M2604 254 c3 -9 6 -34 6 -57 0 -23 4 -37 8 -31 12 12 3 104 -10 104
-6 0 -7 -7 -4 -16z"/>
<path d="M2640 215 c0 -30 5 -55 10 -55 6 0 10 11 10 25 0 16 6 25 16 25 8 0
12 5 9 10 -4 6 -11 8 -16 5 -5 -4 -9 1 -9 9 0 11 9 16 30 16 29 0 30 -2 30
-45 0 -25 5 -45 10 -45 6 0 10 20 10 45 0 25 5 45 10 45 6 0 10 5 10 10 0 6
-27 10 -60 10 l-60 0 0 -55z"/>
<path d="M1324 179 c-6 -11 -7 -10 29 -15 17 -2 27 2 27 10 0 15 -47 19 -56 5z"/>
</g>
</svg>
